<svg width="280" height="210" viewBox="0 0 280 210" fill="none" xmlns="http://www.w3.org/2000/svg">
<g clip-path="url(#clip0_338_736)">
<path opacity="0.4" d="M236.318 80.7368C240.023 80.7368 243.027 77.7394 243.027 74.0419C243.027 70.3444 240.023 67.347 236.318 67.347C232.612 67.347 229.608 70.3444 229.608 74.0419C229.608 77.7394 232.612 80.7368 236.318 80.7368Z" fill="#6C63FF"/>
<path opacity="0.4" d="M94.861 43.904C100.143 43.904 104.425 39.6311 104.425 34.3602C104.425 29.0894 100.143 24.8165 94.861 24.8165C89.5789 24.8165 85.2969 29.0894 85.2969 34.3602C85.2969 39.6311 89.5789 43.904 94.861 43.904Z" fill="#6C63FF"/>
<path opacity="0.4" d="M77.1603 45.6133C80.8657 45.6133 83.8695 42.6159 83.8695 38.9185C83.8695 35.221 80.8657 32.2236 77.1603 32.2236C73.455 32.2236 70.4512 35.221 70.4512 38.9185C70.4512 42.6159 73.455 45.6133 77.1603 45.6133Z" fill="#6C63FF"/>
<path d="M241.937 148.908C236.636 154.699 236.443 163.136 236.443 163.136C236.443 163.136 244.846 162.182 250.147 156.391C255.448 150.6 255.641 142.163 255.641 142.163C255.641 142.163 247.238 143.117 241.937 148.908Z" fill="#3F3D56"/>
<path d="M244.931 150.574C243.327 158.253 236.584 163.346 236.584 163.346C236.584 163.346 232.442 155.989 234.046 148.31C235.65 140.631 242.393 135.539 242.393 135.539C242.393 135.539 246.535 142.896 244.931 150.574Z" fill="#6C63FF"/>
<path d="M228.024 81.8529V173.39L197.446 198.596H41.0137V102.637L86.6582 81.8529H228.024Z" fill="#3F3D56"/>
<path opacity="0.1" d="M238.046 71.3406V71.7074L227.069 79.0394L207.469 92.1245H51.0361L96.6807 71.3406H238.046Z" fill="black"/>
<path opacity="0.1" d="M238.046 71.3406V162.878L207.469 188.084L207.69 91.9034L227.069 79.0394L237.869 71.3406H238.046Z" fill="black"/>
<path d="M196.833 83.9435H101.556L108.646 79.9636H199.936L196.833 83.9435Z" fill="#2F2E41"/>
<path d="M279.065 193.063C279.065 193.063 280.912 200.77 279.233 201.106C277.553 201.441 269.326 201.333 267.311 201.668C265.296 202.003 261.098 201.441 261.098 199.933C261.098 198.425 265.463 197.419 265.463 197.419C265.463 197.419 271.676 194.068 271.844 193.901C272.012 193.733 279.065 193.063 279.065 193.063Z" fill="#2F2E41"/>
<path d="M277.554 147.654C277.554 147.654 277.05 153.351 277.05 153.854C277.05 154.357 277.554 162.232 277.05 162.567C276.546 162.902 277.386 165.248 277.386 166.086C277.386 166.924 280.072 180.831 279.401 186.193C278.729 191.555 280.408 191.052 279.905 191.555C279.401 192.057 279.401 192.057 279.401 193.063C279.401 194.068 274.027 194.906 274.027 194.906L268.15 157.875L271.173 146.816L277.554 147.654Z" fill="#575A89"/>
<path opacity="0.1" d="M277.554 147.654C277.554 147.654 277.05 153.351 277.05 153.854C277.05 154.357 277.554 162.232 277.05 162.567C276.546 162.902 277.386 165.248 277.386 166.086C277.386 166.924 280.072 180.831 279.401 186.193C278.729 191.555 280.408 191.052 279.905 191.555C279.401 192.057 279.401 192.057 279.401 193.063C279.401 194.068 274.027 194.906 274.027 194.906L268.15 157.875L271.173 146.816L277.554 147.654Z" fill="black"/>
<path d="M276.714 195.409C276.714 195.409 278.393 201.441 276.714 201.776C275.035 202.111 266.807 201.392 264.792 201.727C262.777 202.062 258.579 202.111 258.579 200.603C258.579 199.095 262.945 198.09 262.945 198.09C262.945 198.09 269.158 194.738 269.326 194.571C269.494 194.403 276.714 195.409 276.714 195.409Z" fill="#2F2E41"/>
<path d="M279.065 140.952C279.065 140.952 281.08 145.811 278.729 148.325C276.378 150.838 273.691 155.865 273.691 156.2C273.691 156.535 278.393 189.879 277.721 192.057C277.05 194.236 277.218 195.576 277.386 195.911C277.554 196.246 275.706 198.09 273.691 198.09C271.676 198.09 268.654 196.582 268.318 195.241C267.982 193.901 268.822 182.339 268.654 180.161C268.486 177.982 267.646 174.799 267.311 174.129C266.975 173.458 265.128 172.788 264.792 170.777C264.456 168.767 261.769 143.13 262.609 142.292C263.449 141.455 279.065 140.952 279.065 140.952Z" fill="#575A89"/>
<path d="M266.303 102.413C269.456 102.413 272.012 99.8627 272.012 96.7164C272.012 93.57 269.456 91.0194 266.303 91.0194C263.15 91.0194 260.594 93.57 260.594 96.7164C260.594 99.8627 263.15 102.413 266.303 102.413Z" fill="#FFB9B9"/>
<path d="M269.829 99.5649C269.829 99.5649 268.654 105.765 269.493 106.435C270.333 107.105 263.113 108.11 263.113 108.11C263.113 108.11 262.273 99.9 262.105 99.0622C261.937 98.2244 269.829 99.5649 269.829 99.5649Z" fill="#FFB9B9"/>
<path d="M262.105 107.608C262.105 107.608 264.12 101.743 272.348 103.419C272.348 103.419 273.86 103.921 273.356 104.424C272.852 104.927 272.348 104.927 273.02 105.429C273.692 105.932 274.531 105.429 274.027 105.932C273.524 106.435 278.561 109.451 278.225 115.148C277.89 120.845 279.401 128.888 278.225 130.228C277.05 131.569 279.065 137.433 278.729 138.606C278.393 139.779 280.744 141.287 279.737 141.79C278.729 142.292 260.594 145.308 260.09 141.79C259.587 138.271 259.923 140.784 259.419 139.947C258.915 139.109 258.747 137.601 259.083 135.758C259.419 133.914 260.258 129.39 259.923 127.715C259.587 126.039 259.923 111.964 260.93 110.289C261.938 108.613 262.105 107.608 262.105 107.608Z" fill="#6C63FF"/>
<path d="M265.631 148.492C265.631 148.492 268.15 158.043 264.96 158.043C261.769 158.043 261.937 148.157 261.937 148.157L265.631 148.492Z" fill="#FFB9B9"/>
<path d="M263.784 96.7164C263.784 97.2023 264.489 97.5106 265.583 97.581H265.584C266.048 97.6072 266.512 97.5983 266.975 97.5542C267.673 97.4905 267.962 98.1456 268.081 99.0103C268.276 100.436 268.004 102.435 268.318 102.748C268.751 103.181 271.91 102.747 272.897 101.767C273.051 101.629 273.153 101.444 273.187 101.24C273.291 100.642 273.587 100.093 274.03 99.6771C274.613 99.0421 275.443 98.3383 276.378 97.2191C278.057 95.2083 276.378 95.0408 275.874 93.5328C275.37 92.0247 274.531 91.522 274.531 90.5167C274.531 89.5113 270.669 88.6735 267.478 88.8411C264.288 89.0087 264.96 93.0301 264.96 93.0301C264.96 93.0301 264.77 93.516 264.543 94.1427C264.237 94.929 263.987 95.7366 263.798 96.5589C263.79 96.611 263.785 96.6636 263.784 96.7164Z" fill="#2F2E41"/>
<path opacity="0.1" d="M264.455 110.121C264.455 110.121 270.165 109.786 270.668 118.164C271.172 126.542 271.004 134.417 271.004 134.585C271.004 134.752 268.653 150.67 266.47 150.67C264.288 150.67 262.608 150.335 262.105 149.497C261.601 148.66 263.448 136.595 263.448 136.595C263.448 136.595 264.288 123.861 262.944 119.839C261.601 115.818 261.433 110.624 264.455 110.121Z" fill="black"/>
<path d="M263.617 109.283C263.617 109.283 269.326 108.948 269.829 117.326C270.333 125.704 270.165 133.579 270.165 133.747C270.165 133.914 267.814 149.833 265.632 149.833C263.449 149.833 261.769 149.497 261.266 148.66C260.762 147.822 262.609 135.758 262.609 135.758C262.609 135.758 263.449 123.023 262.105 119.002C260.762 114.98 260.594 109.786 263.617 109.283Z" fill="#6C63FF"/>
<path d="M168.946 27.3784C168.946 27.3784 166.458 20.3438 164.661 22.5507C162.864 24.7577 167.426 28.4818 167.426 28.4818L168.946 27.3784Z" fill="#A0616A"/>
<path d="M180.695 20.4818L179.199 21.0353C179.199 21.0353 178.484 24.2059 178.76 24.7577C179.037 25.3094 179.175 24.8956 178.76 25.9991C178.345 27.1025 177.101 29.9991 176.963 30.4129C176.825 30.8267 168.946 27.7922 168.946 26.2749C168.946 26.2749 167.287 28.206 166.458 28.6198C166.458 28.6198 175.581 35.2405 176.825 36.0681C178.069 36.8957 178.76 36.4819 179.866 35.5164C180.972 34.5509 185.671 26.5508 185.671 26.5508L180.695 20.4818Z" fill="#575A89"/>
<path d="M176.686 69.4478C176.686 69.4478 176.825 70.965 177.101 71.103C177.378 71.2409 179.451 74.6892 177.101 75.3789C174.751 76.0685 173.369 75.7927 172.816 76.0685C172.263 76.3444 162.587 76.8961 162.449 75.3789C162.311 73.8616 167.149 73.5857 167.149 73.5857C167.149 73.5857 171.572 70.6892 172.263 69.1719C172.954 67.6546 176.686 69.4478 176.686 69.4478Z" fill="#2F2E41"/>
<path d="M204.747 72.2064C204.747 72.2064 208.064 77.8616 207.235 78.5513C206.406 79.241 198.329 81.7543 197.144 81.8617C195.624 81.9996 194.518 80.7582 195.762 80.0686C197.006 79.3789 199.632 76.4823 199.632 75.5168V73.034L204.747 72.2064Z" fill="#2F2E41"/>
<path d="M207.926 35.2405C207.926 35.2405 210.829 38.8268 206.268 44.6199L198.665 54.2752C198.665 54.2752 203.365 61.7236 203.503 65.5857C203.641 69.4478 204.609 68.6202 204.885 70.2754C205.162 71.9306 206.406 71.103 205.438 72.3444C204.471 73.5858 200.877 74.6892 199.771 73.7237C199.391 73.3765 199.094 72.9481 198.902 72.4705C198.711 71.9929 198.63 71.4783 198.665 70.9651C198.665 70.4133 196.73 67.2409 196.592 66.2754C196.454 65.3098 191.339 57.4477 191.339 57.4477C191.339 57.4477 189.68 52.758 191.616 50.1372C193.551 47.5165 194.83 43.7996 194.83 43.7996C194.83 43.7996 189.128 50.689 185.119 52.3442C185.119 52.3442 183.598 52.62 183.875 53.3097C184.151 53.9994 183.875 54.4132 183.46 55.1028C183.046 55.7925 180.143 63.7926 179.175 65.8616C178.208 67.9305 178.622 69.1719 177.517 69.8616C176.411 70.5513 171.435 69.9995 171.435 69.3099C171.435 68.6202 172.126 66.8271 172.54 65.8616C172.955 64.896 176.272 53.7235 175.996 51.7924C175.72 49.8614 176.134 47.2407 178.208 46.1372C180.281 45.0338 190.786 36.0681 191.339 36.0681C191.892 36.0681 207.926 35.2405 207.926 35.2405Z" fill="#2F2E41"/>
<path d="M180.142 13.5851C183.349 13.5851 185.948 10.9915 185.948 7.79197C185.948 4.5925 183.349 1.99881 180.142 1.99881C176.936 1.99881 174.337 4.5925 174.337 7.79197C174.337 10.9915 176.936 13.5851 180.142 13.5851Z" fill="#A0616A"/>
<path d="M184.842 8.34369C184.842 8.34369 186.639 11.5161 188.85 11.9299C191.062 12.3438 183.045 18.6886 183.045 18.6886C183.045 18.6886 181.11 12.6196 179.451 12.3437C177.792 12.0679 184.842 8.34369 184.842 8.34369Z" fill="#A0616A"/>
<path d="M179.175 21.3093C179.175 23.1025 184.566 28.206 184.566 28.206L189.68 32.4819C189.68 32.4819 189.818 33.9991 190.371 34.137C190.924 34.275 191.615 34.275 191.062 35.1026C190.509 35.9302 189.127 37.7233 190.371 37.9992C190.746 38.0561 191.124 38.092 191.503 38.1067C191.835 38.1261 192.225 38.144 192.663 38.1605C193.686 38.1964 194.966 38.2198 196.352 38.2102C196.746 38.2088 197.147 38.2042 197.555 38.1964C202.781 38.093 208.835 37.4929 208.341 35.5164C207.511 32.206 208.064 31.1025 206.267 29.3094C204.47 27.5163 201.567 21.3093 201.567 21.3093C201.567 21.3093 195.762 11.5161 190.924 11.5161L189.919 11.2527C189.452 11.1299 188.958 11.1569 188.508 11.3296C188.057 11.5024 187.672 11.8123 187.408 12.2154C186.437 13.6899 184.907 15.9051 184.013 16.6196C182.63 17.7231 182.415 16.9314 182.415 16.9314C182.415 16.9314 179.175 19.5162 179.175 21.3093Z" fill="#575A89"/>
<path d="M191.477 42.2751C191.477 42.2751 187.469 48.482 189.957 49.5855C192.445 50.689 193.827 43.1027 193.827 43.1027L191.477 42.2751Z" fill="#A0616A"/>
<path d="M183.938 7.13763C183.715 7.10958 183.645 6.82904 183.607 6.60808C183.406 5.42486 182.523 4.30285 181.335 4.11184C180.882 4.0516 180.42 4.08871 179.982 4.2207C179.354 4.39262 178.765 4.68211 178.245 5.07374C177.991 5.3056 177.697 5.48982 177.377 5.61757C177.159 5.6814 176.234 6.09176 176.018 6.16119C175.543 6.31384 175.15 6.81012 174.661 6.71186C174.192 6.61785 174.015 6.0537 173.939 5.5831C173.768 4.51098 174.383 2.91127 174.994 2.01324C175.458 1.33177 176.243 0.939568 177.028 0.684416C177.948 0.405836 178.893 0.218463 179.85 0.125017C181.141 -0.0271655 182.479 -0.107906 183.716 0.290397C184.954 0.6887 186.08 1.66304 186.311 2.93993C186.359 3.20591 186.369 3.47835 186.427 3.74215C186.571 4.3857 186.998 4.92664 187.247 5.53742C187.427 5.986 187.51 6.46715 187.492 6.94985C187.474 7.43255 187.354 7.90608 187.141 8.33992C186.797 9.0316 186.197 9.69627 186.327 10.4579L185.26 9.61858C185.106 9.53119 184.986 9.39368 184.922 9.22902C184.857 9.06435 184.851 8.88248 184.904 8.71378L185.059 7.381C185.113 7.13953 185.088 6.88732 184.99 6.66041C184.516 5.83399 184.309 7.18441 183.938 7.13763Z" fill="#2F2E41"/>
<path opacity="0.1" d="M193.965 32.7577L192.663 38.1606C193.976 38.2075 195.713 38.2323 197.554 38.1964C198.019 36.8061 198.463 35.3564 198.803 33.9991C200.047 29.0336 197.973 21.4473 196.867 17.861C195.762 14.2748 192.997 13.3093 192.997 13.3093C191.864 13.707 190.793 14.2644 189.818 14.9645C188.021 16.2058 193.965 32.7577 193.965 32.7577Z" fill="black"/>
<path opacity="0.1" d="M192.859 32.4819L191.503 38.1068C191.835 38.1261 192.225 38.144 192.663 38.1606C193.686 38.1964 194.966 38.2199 196.352 38.2102C196.851 36.733 197.334 35.1743 197.697 33.7233C198.941 28.7577 196.868 21.1714 195.762 17.5852C194.656 13.9989 192.237 17.93 192.237 17.93C192.237 17.93 193.205 15.5851 191.408 16.8265C189.611 18.0679 192.859 32.4819 192.859 32.4819Z" fill="black"/>
<path d="M192.444 13.0334C192.444 13.0334 195.209 13.9989 196.315 17.5852C197.421 21.1714 199.494 28.7577 198.25 33.7233C197.006 38.6888 194.38 44.8958 194.38 44.8958C194.38 44.8958 191.753 42.9647 190.786 43.3785L193.412 32.4819C193.412 32.4819 187.468 15.93 189.265 14.6886C190.24 13.9885 191.311 13.4311 192.444 13.0334Z" fill="#575A89"/>
<path d="M194.505 82.2191L156.262 2.69626L92.3174 33.3169L115.835 82.2191H194.505Z" fill="#F2F2F2"/>
<path d="M143.321 33.9108L109.357 50.1745L110.369 52.2781L144.332 36.0144L143.321 33.9108Z" fill="#3F3D56"/>
<path d="M152.313 52.6094L118.35 68.8731L119.361 70.9767L153.325 54.713L152.313 52.6094Z" fill="#3F3D56"/>
<path d="M158.49 22.9087L150.058 26.9466L154.104 35.3609L162.536 31.323L158.49 22.9087Z" fill="#3F3D56"/>
<path d="M167.482 41.6073L159.05 45.6451L163.096 54.0595L171.529 50.0216L167.482 41.6073Z" fill="#3F3D56"/>
<path d="M159.071 17.0804L155.598 26.94L150.917 25.298L150.276 27.1168L156.774 29.3956L160.893 17.7196L159.071 17.0804Z" fill="#57B894"/>
<path d="M168.063 35.7789L164.59 45.6385L159.909 43.9968L159.269 45.8153L165.766 48.0941L169.886 36.4181L168.063 35.7789Z" fill="#57B894"/>
<path d="M3.69096 173.745L20.9688 170.062L17.2781 152.821L0.000283977 156.504L3.69096 173.745Z" fill="#F2F2F2"/>
<path d="M20.4877 148.215C20.4877 148.215 14.1415 152.738 16.2569 154.547C18.3723 156.357 22.6031 149.119 22.6031 149.119L20.4877 148.215Z" fill="#FFB9B9"/>
<path d="M49.8011 155.15C49.8011 155.15 48.5924 170.228 48.2902 172.339C47.988 174.45 47.6858 193.448 47.0814 195.559C46.477 197.67 45.8726 202.796 45.8726 202.796H42.2462C42.2462 202.796 42.5484 193.448 41.6418 189.829C40.7352 186.211 41.0374 176.259 41.0374 176.259C41.0374 176.259 39.2242 158.467 40.1308 156.055C41.0374 153.643 49.8011 155.15 49.8011 155.15Z" fill="#FFB9B9"/>
<path d="M44.9657 201.891C44.9657 201.891 46.4767 202.796 46.4767 203.399C46.4767 204.002 46.1745 205.51 46.4767 206.113C46.7789 206.716 48.8943 209.129 47.6855 209.732C46.4767 210.335 41.0371 209.732 41.0371 209.732C41.0371 209.732 41.3393 205.51 41.6415 205.209C41.9437 204.907 41.3393 201.891 41.3393 201.891H44.9657Z" fill="#2F2E41"/>
<path d="M26.6997 154.781C26.6997 154.781 26.3158 169.902 26.3943 172.033C26.4727 174.164 24.7749 193.088 25.1539 195.251C25.5329 197.414 25.5947 202.575 25.5947 202.575L29.2011 202.955C29.2011 202.955 29.8839 193.627 31.1661 190.123C32.4483 186.619 33.1946 176.691 33.1946 176.691C33.1946 176.691 36.8693 159.187 36.2215 156.693C35.5736 154.199 26.6997 154.781 26.6997 154.781Z" fill="#FFB9B9"/>
<path d="M26.5915 201.77C26.5915 201.77 24.9937 202.512 24.9302 203.111C24.8668 203.711 25.0087 205.242 24.6448 205.81C24.2808 206.379 21.9233 208.556 23.062 209.282C24.2007 210.009 29.6736 209.979 29.6736 209.979C29.6736 209.979 29.8172 205.749 29.5484 205.417C29.2796 205.086 30.1978 202.15 30.1978 202.15L26.5915 201.77Z" fill="#2F2E41"/>
<path d="M45.5704 132.534C45.5704 132.534 47.988 132.835 48.8946 137.962C49.8012 143.088 53.1254 156.055 50.4056 156.96C47.6858 157.864 39.5264 159.674 39.2242 159.071C38.922 158.467 38.3176 156.96 38.3176 156.96C38.3176 156.96 39.2242 159.674 38.0154 159.674C36.8067 159.674 25.0209 157.864 25.3231 156.96C25.6253 156.055 26.2297 149.421 26.2297 149.421C26.2297 149.421 28.0429 138.263 29.8561 136.454C30.3808 135.951 30.7882 135.339 31.0494 134.662C31.3105 133.984 31.419 133.258 31.3671 132.534H45.5704Z" fill="#2F2E41"/>
<path d="M50.1037 130.121C50.1037 130.121 46.1752 129.217 45.5708 130.423C44.9664 131.629 47.0818 133.438 47.9883 133.438C48.8949 133.438 50.4059 132.534 50.4059 132.534L50.1037 130.121Z" fill="#FFB9B9"/>
<path d="M41.9445 104.489C44.9487 104.489 47.384 102.059 47.384 99.0609C47.384 96.0631 44.9487 93.6329 41.9445 93.6329C38.9403 93.6329 36.5049 96.0631 36.5049 99.0609C36.5049 102.059 38.9403 104.489 41.9445 104.489Z" fill="#FFB9B9"/>
<path d="M41.037 102.981C41.037 102.981 40.1304 107.203 40.7348 107.203C41.3392 107.203 36.2018 109.917 36.2018 109.917L32.2732 109.314L31.0645 107.505C31.0645 107.505 37.4106 103.283 37.4106 100.87C37.4106 98.4578 41.037 102.981 41.037 102.981Z" fill="#FFB9B9"/>
<path d="M38.3177 107.203C38.3177 107.203 39.2243 106.6 39.5265 106.6H41.9441C42.2463 106.6 46.1749 107.505 46.1749 107.505L48.5924 121.075C48.5924 121.075 44.3617 128.01 47.3836 133.438C47.3836 133.438 46.4771 132.835 42.2463 133.137C38.0155 133.438 30.4605 134.343 30.1583 134.343C29.8561 134.343 29.8561 131.931 30.1583 131.327C30.4605 130.724 29.8561 131.026 29.8561 129.518C29.8561 128.01 28.9495 125.296 28.9495 125.296L24.7188 109.917C24.7188 109.917 30.1583 106.901 31.0649 107.203C31.9715 107.505 34.6913 108.409 35.2957 108.108C35.9001 107.806 38.3177 107.203 38.3177 107.203Z" fill="#6C63FF"/>
<path d="M45.2686 107.806L46.1751 107.505C46.1751 107.505 47.9883 107.203 50.1037 109.012C52.2191 110.822 60.0763 116.25 60.0763 116.25C60.0763 116.25 63.0983 118.662 62.1917 121.376C61.2851 124.09 59.7741 130.724 55.2411 130.423C55.2411 130.423 52.5213 134.041 51.0103 133.438C49.4993 132.835 48.2905 130.423 49.1971 130.121C50.1037 129.82 52.5213 126.804 52.5213 126.804L49.4993 121.075H48.5928L45.2686 119.265L45.2686 107.806Z" fill="#6C63FF"/>
<path d="M27.1358 109.615L24.7183 109.917C24.7183 109.917 22.6029 110.822 22.9051 114.742C23.2073 118.662 21.0919 136.454 21.9985 138.565C21.9985 138.565 18.9765 148.818 19.5809 149.119C20.1853 149.421 23.8117 151.23 23.5095 150.024C23.2073 148.818 26.8337 140.374 26.8337 140.374C26.8337 140.374 31.0644 135.851 29.2512 129.518V124.392L27.1358 109.615Z" fill="#6C63FF"/>
<path d="M46.4708 104.309L42.629 105.144L42.1353 103.256L42.3251 105.21L36.1276 106.557L35.8551 105.515L35.9598 106.594L31.9904 107.457L31.1412 99.3228C30.2682 95.985 33.4544 92.4276 36.7992 91.5564L38.2831 91.17C40.7398 90.5302 45.2054 91.1119 45.8465 93.5634C44.7243 97.8375 42.8112 102.523 46.4708 104.309Z" fill="#2F2E41"/>
</g>
<defs>
<clipPath id="clip0_338_736">
<rect width="280" height="210" fill="white"/>
</clipPath>
</defs>
</svg>
